<?xml version="1.0" standalone="no"?>
<!DOCTYPE svg PUBLIC "-//W3C//DTD SVG 20010904//EN"
 "http://www.w3.org/TR/2001/REC-SVG-20010904/DTD/svg10.dtd">
<svg version="1.0" xmlns="http://www.w3.org/2000/svg"
 width="1080.000000pt" height="1080.000000pt" viewBox="0 0 1080.000000 1080.000000"
 preserveAspectRatio="xMidYMid meet">

<g transform="translate(0.000000,1080.000000) scale(0.100000,-0.100000)"
fill="#000000" stroke="none">
<path d="M2660 6911 c-115 -35 -170 -123 -170 -272 0 -182 140 -458 323 -638
61 -59 69 -60 125 -12 27 23 31 32 24 52 -5 14 -5 37 0 57 9 31 6 36 -41 88
-57 62 -138 193 -169 274 -58 149 -56 278 5 351 35 42 79 59 150 59 49 1 55 2
38 12 -54 32 -221 48 -285 29z"/>
<path d="M6587 6820 c-151 -39 -215 -183 -126 -285 33 -37 89 -61 206 -89 105
-26 140 -70 92 -115 -42 -39 -164 -34 -257 10 -24 12 -45 20 -46 18 -2 -2 -14
-24 -26 -48 l-22 -45 22 -18 c40 -33 129 -53 231 -53 86 0 101 3 154 30 76 39
109 94 102 173 -7 94 -58 127 -275 182 -45 12 -82 40 -82 64 0 27 35 57 77 66
46 11 118 1 178 -24 l36 -15 20 46 c11 26 18 52 15 59 -13 35 -215 65 -299 44z"/>
<path d="M7165 6823 c-75 -16 -141 -61 -161 -109 -18 -44 -18 -118 1 -154 27
-52 53 -65 242 -120 83 -23 113 -53 93 -89 -31 -59 -161 -62 -271 -8 l-47 23
-21 -43 c-12 -24 -21 -50 -21 -57 0 -7 22 -23 48 -34 177 -76 378 -44 439 70
25 49 23 126 -6 166 -30 42 -74 64 -196 96 -54 15 -107 34 -117 43 -27 25 -23
69 8 90 39 25 145 22 208 -6 27 -12 50 -20 52 -18 6 6 44 100 42 102 -47 39
-211 66 -293 48z"/>
<path d="M3792 6763 l3 -58 98 -3 97 -3 0 -249 0 -250 70 0 70 0 0 250 0 250
100 0 100 0 0 60 0 60 -270 0 -271 0 3 -57z"/>
<path d="M4410 6511 l0 -311 70 0 70 0 0 85 0 85 69 0 70 0 58 -85 58 -84 78
-1 78 0 -24 33 c-13 17 -44 62 -70 98 l-46 67 39 26 c68 45 103 142 80 226
-17 65 -55 109 -119 139 -53 24 -66 26 -233 29 l-178 4 0 -311z m366 156 c17
-20 24 -40 24 -72 0 -32 -7 -52 -24 -72 -23 -27 -29 -28 -125 -31 l-101 -4 0
107 0 107 101 -4 c96 -3 102 -4 125 -31z"/>
<path d="M5135 6549 c-66 -149 -128 -289 -137 -310 l-17 -39 73 0 73 0 24 63
25 62 149 0 149 0 25 -62 24 -63 75 0 c55 0 73 3 69 13 -2 6 -64 146 -137 310
l-133 297 -71 0 -71 0 -120 -271z m243 6 c23 -55 42 -103 42 -107 0 -5 -43 -8
-95 -8 -52 0 -95 2 -95 5 0 19 94 225 100 218 4 -4 26 -53 48 -108z"/>
<path d="M5740 6510 l0 -310 70 0 70 0 2 187 3 187 154 -187 154 -187 58 0 59
0 0 310 0 310 -70 0 -70 0 -2 -187 -3 -188 -153 188 -153 187 -60 0 -59 0 0
-310z"/>
<path d="M7590 6510 l0 -310 70 0 70 0 0 128 0 127 140 0 140 0 0 -127 0 -128
70 0 70 0 0 310 0 310 -70 0 -70 0 0 -125 0 -125 -140 0 -140 0 0 125 0 125
-70 0 -70 0 0 -310z"/>
<path d="M8300 6510 l0 -310 70 0 70 0 0 310 0 310 -70 0 -70 0 0 -310z"/>
<path d="M8590 6511 l0 -311 70 0 70 0 0 84 0 83 109 5 c95 4 116 8 167 34 95
47 136 131 116 233 -15 71 -52 118 -121 150 -53 24 -66 26 -233 29 l-178 4 0
-311z m366 156 c17 -20 24 -40 24 -68 0 -84 -38 -109 -165 -109 l-85 0 0 106
0 106 101 -4 c96 -3 102 -4 125 -31z"/>
<path d="M3179 6238 c-11 -20 -10 -21 3 -11 8 7 18 10 21 6 4 -3 7 -1 7 5 0
22 -19 22 -31 0z"/>
<path d="M3165 6119 c-4 -6 -5 -13 -2 -16 7 -7 27 6 27 18 0 12 -17 12 -25 -2z"/>
<path d="M3130 6085 c-161 -145 -376 -265 -477 -265 -73 0 -93 21 -94 98 l0
57 -21 -45 c-11 -25 -27 -73 -35 -107 -13 -53 -14 -70 -3 -108 18 -65 43 -79
133 -73 131 9 317 117 502 291 44 42 73 76 65 77 -18 0 -56 58 -52 78 3 15 1
14 -18 -3z"/>
<path d="M3175 5912 c-22 -20 -58 -51 -79 -68 -23 -18 -36 -35 -32 -42 14 -24
147 -93 234 -122 66 -22 109 -30 160 -30 l71 0 -2 110 -1 110 -46 0 c-56 0
-131 20 -205 54 -32 14 -58 26 -59 26 0 0 -19 -17 -41 -38z"/>
<path d="M4065 5913 c-34 -9 -55 -35 -55 -67 0 -35 16 -49 79 -66 31 -8 41
-16 41 -32 0 -19 -4 -20 -59 -15 -46 4 -61 2 -65 -9 -12 -32 111 -47 152 -18
15 10 22 25 22 49 0 37 -23 56 -87 70 -41 8 -50 22 -29 43 13 13 23 14 55 6
33 -9 41 -8 46 4 3 9 2 19 -2 23 -11 10 -74 18 -98 12z"/>
<path d="M5490 5914 c-64 -23 -90 -57 -90 -120 0 -54 53 -104 109 -104 23 0
56 7 73 16 27 14 29 17 15 31 -11 12 -19 12 -35 4 -33 -17 -67 -13 -90 12 -45
48 -17 117 47 117 20 0 42 -5 47 -10 7 -7 16 -6 29 4 18 13 17 14 -6 29 -28
19 -77 29 -99 21z"/>
<path d="M6642 5909 c-41 -12 -60 -48 -44 -84 8 -18 26 -29 67 -40 42 -13 55
-21 53 -33 -4 -20 -67 -28 -97 -13 -15 8 -20 7 -25 -6 -9 -23 5 -34 52 -40 72
-10 122 15 122 61 0 30 -25 52 -77 65 -50 14 -61 27 -39 49 13 13 23 14 55 6
33 -9 41 -8 46 4 3 9 2 19 -2 23 -14 13 -77 18 -111 8z"/>
<path d="M6876 5910 c-40 -12 -64 -38 -77 -80 -29 -96 84 -175 179 -126 69 36
75 148 10 189 -32 20 -77 27 -112 17z m94 -67 c25 -32 20 -69 -12 -95 -62 -54
-149 30 -98 95 16 20 30 27 55 27 25 0 39 -7 55 -27z"/>
<path d="M7883 5909 c-46 -13 -73 -53 -73 -106 0 -38 5 -50 34 -79 28 -28 41
-34 78 -34 140 0 175 170 45 219 -33 13 -40 13 -84 0z m97 -59 c26 -26 25 -60
-1 -94 -40 -51 -119 -21 -119 46 0 17 7 40 17 50 22 24 77 24 103 -2z"/>
<path d="M8394 5913 c-35 -7 -56 -37 -52 -75 3 -31 7 -34 61 -52 44 -14 57
-23 57 -39 0 -18 -4 -19 -59 -14 -47 5 -60 4 -65 -9 -12 -32 110 -48 152 -18
15 10 22 25 22 49 0 38 -13 48 -83 69 -49 14 -58 32 -24 47 18 8 34 9 55 1 25
-9 32 -8 37 5 3 9 2 20 -2 24 -11 10 -73 18 -99 12z"/>
<path d="M4220 5835 c0 -41 5 -85 11 -98 23 -51 109 -63 156 -23 26 23 28 31
32 110 l3 86 -26 0 c-26 0 -26 -1 -26 -71 0 -85 -11 -109 -48 -109 -44 0 -52
16 -52 102 0 77 0 78 -25 78 -24 0 -25 -2 -25 -75z"/>
<path d="M4470 5800 l0 -110 25 0 c21 0 25 5 25 29 0 26 3 29 45 33 67 8 95
30 95 76 0 64 -28 82 -124 82 l-66 0 0 -110z m138 41 c5 -30 -20 -51 -60 -51
-26 0 -28 3 -28 41 l0 40 43 -3 c36 -3 42 -6 45 -27z"/>
<path d="M4708 5810 c-3 -116 -3 -120 23 -120 14 0 19 7 19 29 0 27 3 29 53
34 66 8 102 43 93 91 -10 50 -38 66 -116 66 l-69 0 -3 -100z m132 45 c17 -20
3 -54 -25 -61 -44 -11 -60 -2 -63 39 -3 37 -3 37 36 37 22 0 45 -6 52 -15z"/>
<path d="M4940 5800 l0 -110 80 0 c73 0 80 2 80 20 0 16 -8 19 -57 22 l-58 3
-3 88 c-3 79 -5 87 -22 87 -19 0 -20 -7 -20 -110z"/>
<path d="M5106 5863 c15 -27 33 -57 41 -68 7 -11 13 -39 13 -62 0 -39 2 -43
25 -43 22 0 25 4 25 40 0 29 11 58 40 105 22 36 40 68 40 70 0 3 -10 5 -23 5
-16 0 -29 -12 -47 -45 -14 -25 -28 -45 -31 -45 -4 0 -19 20 -33 45 -21 35 -33
45 -52 45 l-26 0 28 -47z"/>
<path d="M5650 5800 l0 -110 25 0 c23 0 25 4 25 45 l0 45 50 0 50 0 0 -45 c0
-41 2 -45 25 -45 l25 0 0 110 0 110 -25 0 c-23 0 -25 -4 -25 -45 l0 -45 -50 0
-50 0 0 45 c0 41 -2 45 -25 45 l-25 0 0 -110z"/>
<path d="M5932 5816 c-60 -134 -58 -126 -30 -126 17 0 29 8 36 25 10 22 18 25
62 25 44 0 52 -3 62 -25 7 -17 19 -25 36 -25 28 0 30 -8 -30 126 -37 84 -45
94 -68 94 -23 0 -31 -10 -68 -94z m84 9 c19 -45 19 -45 -16 -45 -16 0 -30 3
-30 7 0 10 24 73 28 73 1 0 10 -16 18 -35z"/>
<path d="M6150 5800 l0 -110 25 0 25 0 0 110 0 110 -25 0 -25 0 0 -110z"/>
<path d="M6260 5800 c0 -103 1 -110 20 -110 18 0 20 7 20 65 0 36 3 65 8 64 4
0 30 -29 57 -64 35 -44 57 -64 73 -65 21 0 22 2 22 110 l0 110 -25 0 c-23 0
-24 -3 -27 -66 l-3 -66 -53 66 c-33 41 -60 66 -72 66 -19 0 -20 -7 -20 -110z"/>
<path d="M7080 5800 l0 -110 80 0 c73 0 80 2 80 20 0 18 -7 20 -55 20 l-55 0
0 90 c0 89 0 90 -25 90 l-25 0 0 -110z"/>
<path d="M7270 5834 c0 -109 23 -143 97 -144 30 0 50 7 70 24 26 23 28 31 32
110 l3 86 -26 0 c-26 0 -26 -1 -26 -71 0 -85 -11 -109 -48 -109 -44 0 -52 16
-52 102 0 77 0 78 -25 78 -24 0 -25 -2 -25 -76z"/>
<path d="M7490 5890 c0 -16 6 -20 35 -20 l35 0 0 -90 c0 -89 0 -90 25 -90 25
0 25 1 25 89 l0 90 38 3 c25 2 37 8 37 18 0 12 -19 16 -97 18 -93 3 -98 2 -98
-18z"/>
<path d="M7720 5800 c0 -103 1 -110 20 -110 19 0 20 7 20 110 0 103 -1 110
-20 110 -19 0 -20 -7 -20 -110z"/>
<path d="M8090 5800 l0 -110 25 0 c23 0 24 3 27 67 l3 67 53 -67 c33 -41 61
-67 73 -67 18 0 19 8 19 110 0 109 0 110 -24 110 -22 0 -23 -4 -23 -55 0 -31
-3 -58 -5 -61 -3 -3 -27 22 -54 56 -34 41 -56 60 -71 60 -22 0 -23 -3 -23
-110z"/>
</g>
</svg>
